<svg width="1080" height="1080" viewBox="0 0 1080 1080" fill="none" xmlns="http://www.w3.org/2000/svg">
<rect width="1080" height="1080" fill="#1D1D1F"/>
<path d="M913.649 674.926L928.313 678.036L876.766 841.564H410.179V825.123H432.842C458.319 825.123 476.538 816.828 487.499 800.238C493.72 790.758 496.831 768.836 496.831 734.471V345.649C496.831 308.025 492.683 284.474 484.388 274.994C472.835 261.959 455.652 255.442 432.842 255.442H410.179V239H683.021V255.442C651.027 255.145 628.512 258.108 615.477 264.329C602.739 270.55 593.999 278.401 589.259 287.881C584.519 297.36 582.149 320.023 582.149 355.869V734.471C582.149 759.06 584.519 775.946 589.259 785.129C592.814 791.351 598.295 795.942 605.701 798.905C613.107 801.867 636.214 803.349 675.023 803.349H719.015C765.229 803.349 797.668 799.942 816.332 793.128C834.995 786.314 852.029 774.316 867.434 757.134C882.839 739.656 898.244 712.253 913.649 674.926Z" fill="#0066CC"/>
<path d="M410.178 825.123V841.564H152V825.123H173.33C198.214 825.123 216.285 817.865 227.543 803.349C234.653 793.869 238.208 771.058 238.208 734.916V345.649C238.208 315.135 236.282 294.99 232.431 285.214C229.468 277.808 223.395 271.439 214.212 266.107C201.177 258.997 187.55 255.442 173.33 255.442H152V239H410.178V255.442H388.404C363.816 255.442 345.893 262.7 334.636 277.216C327.229 286.696 323.526 309.507 323.526 345.649V734.916C323.526 765.429 325.452 785.574 329.303 795.35C332.266 802.756 338.487 809.125 347.967 814.458C360.705 821.568 374.184 825.123 388.404 825.123H410.178Z" fill="#0066CC"/>
</svg>
