<svg width="32" height="32" viewBox="0 0 32 32" fill="none" xmlns="http://www.w3.org/2000/svg">
<rect width="32" height="32" rx="8" fill="#0066CC"/>
<path d="M27.2 20L27.6 20.08L25.9 24.8H12.2V24.48H12.8C13.5 24.48 14.1 24.24 14.4 23.76C14.6 23.44 14.7 22.8 14.7 21.76V10.24C14.7 9.12 14.6 8.4 14.3 8.16C14 7.76 13.5 7.6 12.8 7.6H12.2V7.2H20.2V7.6C19.3 7.6 18.6 7.68 18.2 7.84C17.9 7.92 17.7 8.24 17.5 8.56C17.4 8.88 17.3 9.52 17.3 10.56V21.76C17.3 22.48 17.4 22.96 17.5 23.2C17.6 23.44 17.8 23.6 17.9 23.68C18.1 23.76 18.8 23.76 20 23.76H21.3C22.7 23.76 23.6 23.68 24.2 23.52C24.7 23.36 25.2 22.96 25.7 22.4C26.2 21.84 26.6 21.04 27.2 20Z" fill="white"/>
<path d="M12.2 24.48V24.8H4.5V24.48H5.1C5.8 24.48 6.4 24.24 6.7 23.76C6.9 23.44 7 22.8 7 21.76V10.24C7 9.36 6.9 8.72 6.9 8.48C6.8 8.24 6.6 8.08 6.4 7.92C5.9 7.68 5.5 7.6 5.1 7.6H4.5V7.2H12.2V7.6H11.5C10.8 7.6 10.2 7.76 9.9 8.24C9.7 8.48 9.6 9.12 9.6 10.24V21.76C9.6 22.64 9.7 23.04 9.8 23.28C9.8 23.52 10 23.68 10.2 23.84C10.7 24.08 11.1 24.48 11.5 24.48H12.2Z" fill="white"/>
</svg>