<svg width="40" height="40" viewBox="0 0 40 40" fill="none" xmlns="http://www.w3.org/2000/svg">
<path d="M34 25L34.5 25.1L32.4 31H15.2V30.6H16C16.9 30.6 17.6 30.3 18 29.7C18.3 29.3 18.4 28.5 18.4 27.2V12.8C18.4 11.4 18.3 10.5 17.9 10.2C17.5 9.7 16.9 9.5 16 9.5H15.2V9H25.3V9.5C24.1 9.5 23.3 9.6 22.8 9.8C22.4 10 22.1 10.3 21.9 10.7C21.7 11.1 21.6 11.9 21.6 13.2V27.2C21.6 28.1 21.7 28.7 21.9 29C22 29.3 22.2 29.5 22.4 29.6C22.6 29.7 23.5 29.7 25 29.7H26.6C28.4 29.7 29.5 29.6 30.2 29.4C30.9 29.2 31.5 28.7 32.1 28C32.7 27.3 33.3 26.3 34 25Z" fill="currentColor"/>
<path d="M15.2 30.6V31H5.6V30.6H6.4C7.3 30.6 8 30.3 8.4 29.7C8.6 29.3 8.8 28.5 8.8 27.2V12.8C8.8 11.7 8.7 10.9 8.6 10.6C8.5 10.3 8.3 10.1 8 9.9C7.4 9.6 6.9 9.5 6.4 9.5H5.6V9H15.2V9.5H14.4C13.5 9.5 12.8 9.7 12.4 10.3C12.1 10.6 12 11.4 12 12.8V27.2C12 28.3 12.1 28.8 12.2 29.1C12.3 29.4 12.5 29.6 12.8 29.8C13.4 30.1 13.9 30.6 14.4 30.6H15.2Z" fill="currentColor"/>
</svg>